<svg xmlns="http://www.w3.org/2000/svg" xmlns:xlink="http://www.w3.org/1999/xlink" width="1326" height="860" viewBox="0 0 1326 860">
    <defs>
        <path id="a" d="M.35.255h23.046V22.4H.35z"/>
        <path id="c" d="M.315.507h18.162v17.807H.315z"/>
        <path id="e" d="M.315.507h18.162v17.807H.315z"/>
    </defs>
    <g fill="none" fill-rule="evenodd">
        <path stroke="#24ABFF" stroke-width="7" d="M1322 63c0 8.285-6.719 15-15 15-8.285 0-15-6.715-15-15s6.715-15 15-15c8.281 0 15 6.715 15 15"/>
        <path stroke="#4C2FD1" stroke-width="13" d="M35 446c0 19.332-15.677 35-35 35-19.332 0-35-15.668-35-35s15.668-35 35-35c19.323 0 35 15.668 35 35"/>
        <path stroke="#C9E2EE" stroke-width="6" d="M434 636.5c0 6.076-4.927 11-11 11-6.076 0-11-4.924-11-11s4.924-11 11-11c6.073 0 11 4.924 11 11"/>
        <path fill="#46D598" d="M257 127.002c0 6.076-4.925 10.998-11 10.998s-11-4.922-11-10.998S239.925 116 246 116s11 4.926 11 11.002"/>
        <g transform="translate(521 837)">
            <mask id="b" fill="#fff">
                <use xlink:href="#a"/>
            </mask>
            <path fill="#FFF" d="M23.396 11.328c0 6.115-5.157 11.073-11.521 11.073C5.51 22.4.35 17.443.35 11.328.35 5.212 5.51.255 11.875.255c6.364 0 11.52 4.957 11.52 11.073" mask="url(#b)"/>
        </g>
        <path fill="#46D598" d="M640 240.5a5.5 5.5 0 1 1-11 0 5.5 5.5 0 0 1 11 0"/>
        <g transform="translate(665 608)">
            <mask id="d" fill="#fff">
                <use xlink:href="#c"/>
            </mask>
            <path fill="#E6E0FB" d="M18.48 9.41c0 4.918-4.068 8.904-9.085 8.904-5.013 0-9.08-3.986-9.08-8.904 0-4.917 4.067-8.903 9.08-8.903 5.017 0 9.084 3.986 9.084 8.903" mask="url(#d)"/>
        </g>
        <path fill="#46D598" d="M856.48 532.41c0 4.918-4.068 8.904-9.085 8.904-5.013 0-9.08-3.986-9.08-8.904 0-4.917 4.067-8.903 9.08-8.903 5.017 0 9.084 3.986 9.084 8.903"/>
        <path stroke="#46D598" stroke-width="5" d="M932 12.502c0 5.244-4.254 9.498-9.498 9.498-5.248 0-9.502-4.254-9.502-9.498A9.502 9.502 0 0 1 922.502 3C927.746 3 932 7.254 932 12.502"/>
    </g>
</svg>
